HIERARCHY
ROOT Hips
{
	OFFSET -0.001795 -0.223333 0.028219
	CHANNELS 6 Xposition Yposition Zposition Zrotation Yrotation Xrotation 
	JOINT LeftUpLeg
	{
		OFFSET 0.069520 -0.091406 -0.006815
		CHANNELS 3 Zrotation Yrotation Xrotation
		JOINT LeftLeg
		{
			OFFSET 0.034277 -0.375199 -0.004496
			CHANNELS 3 Zrotation Yrotation Xrotation
			JOINT LeftFoot
			{
				OFFSET -0.013596 -0.397961 -0.043693
				CHANNELS 3 Zrotation Yrotation Xrotation
				JOINT LeftToe
				{
					OFFSET 0.026358 -0.055791 0.119288
					CHANNELS 3 Zrotation Yrotation Xrotation
					End Site
					{
						OFFSET 0.000000 0.000000 0.000000
					}
				}
			}
		}
	}
	JOINT RightUpLeg
	{
		OFFSET -0.067670 -0.090522 -0.004320
		CHANNELS 3 Zrotation Yrotation Xrotation
		JOINT RightLeg
		{
			OFFSET -0.038290 -0.382569 -0.008850
			CHANNELS 3 Zrotation Yrotation Xrotation
			JOINT RightFoot
			{
				OFFSET 0.015774 -0.398415 -0.042312
				CHANNELS 3 Zrotation Yrotation Xrotation
				JOINT RightToe
				{
					OFFSET -0.025372 -0.048144 0.123348
					CHANNELS 3 Zrotation Yrotation Xrotation
					End Site
					{
						OFFSET 0.000000 0.000000 0.000000
					}
				}
			}
		}
	}
	JOINT Spine
	{
		OFFSET -0.002533 0.108963 -0.026696
		CHANNELS 3 Zrotation Yrotation Xrotation
		JOINT Spine1
		{
			OFFSET 0.005487 0.135180 0.001092
			CHANNELS 3 Zrotation Yrotation Xrotation
			JOINT Spine2
			{
				OFFSET 0.001457 0.052922 0.025425
				CHANNELS 3 Zrotation Yrotation Xrotation
				JOINT Neck
				{
					OFFSET -0.002778 0.213870 -0.042857
					CHANNELS 3 Zrotation Yrotation Xrotation
					JOINT Head
					{
						OFFSET 0.005152 0.064970 0.051349
						CHANNELS 3 Zrotation Yrotation Xrotation
						End Site
						{
							OFFSET 0.000000 0.000000 0.000000
						}
					}
				}
				JOINT LeftShoulder
				{
					OFFSET 0.078845 0.121749 -0.034090
					CHANNELS 3 Zrotation Yrotation Xrotation
					JOINT LeftArm
					{
						OFFSET 0.090977 0.030469 -0.008868
						CHANNELS 3 Zrotation Yrotation Xrotation
						JOINT LeftForeArm
						{
							OFFSET 0.259612 -0.012772 -0.027456
							CHANNELS 3 Zrotation Yrotation Xrotation
							JOINT LeftHand
							{
								OFFSET 0.249234 0.008986 -0.001171
								CHANNELS 3 Zrotation Yrotation Xrotation
								End Site
								{
									OFFSET 0.000000 0.000000 0.000000
								}
							}
						}
					}
				}
				JOINT RightShoulder
				{
					OFFSET -0.081759 0.118833 -0.038615
					CHANNELS 3 Zrotation Yrotation Xrotation
					JOINT RightArm
					{
						OFFSET -0.096012 0.032551 -0.009143
						CHANNELS 3 Zrotation Yrotation Xrotation
						JOINT RightForeArm
						{
							OFFSET -0.253742 -0.013329 -0.021401
							CHANNELS 3 Zrotation Yrotation Xrotation
							JOINT RightHand
							{
								OFFSET -0.255298 0.007772 -0.005559
								CHANNELS 3 Zrotation Yrotation Xrotation
								End Site
								{
									OFFSET 0.000000 0.000000 0.000000
								}
							}
						}
					}
				}
			}
		}
	}
}
MOTION
Frames: 7
Frame Time: 0.050000
0.000000 0.924492 0.000000 -0.309783 3.678888 1.453492 6.879953 -0.130534 1.375208 1.960982 -0.668149 8.278749 18.696156 30.708355 22.835891 0.000000 0.000000 0.000000 -2.835397 1.118223 -14.814258 0.719573 0.401532 19.549536 1.775588 3.634318 1.663165 0.000000 0.000000 0.000000 2.522290 -0.122300 1.421455 1.994420 -1.123738 2.587013 -1.968068 -4.026231 1.122753 6.578666 -4.212607 -6.741685 0.000000 0.000000 0.000000 -22.242857 -9.741083 3.840888 -36.029592 -0.747263 -3.911896 -86.442600 -50.304128 51.167536 0.000000 0.000000 0.000000 22.182194 3.467491 -0.791828 47.156863 2.613687 -3.067228 25.294603 43.292550 10.905555 0.000000 0.000000 0.000000 
-0.000779 0.924262 -0.003159 -0.566979 0.599503 2.730883 7.528923 -0.117800 1.404391 0.276617 -0.278706 6.690846 20.745430 32.631928 24.582363 0.000000 0.000000 0.000000 -2.059962 1.459311 -17.173541 -0.205252 0.839703 20.049285 2.827093 5.881907 2.159249 0.000000 0.000000 0.000000 2.670728 -0.068318 0.326541 1.593003 -0.980007 4.608611 -0.555222 -8.601936 -0.673692 3.757672 -2.500713 -5.957337 0.000000 0.000000 0.000000 -24.281850 -9.008977 5.687020 -33.970989 -5.143252 -3.176528 -89.898849 -54.708706 60.970250 0.000000 0.000000 0.000000 19.520001 3.287260 -2.511499 48.342624 -0.364465 -3.610862 27.800834 42.186144 10.185489 0.000000 0.000000 0.000000 
-0.001413 0.922094 -0.006885 -0.426636 -4.442291 2.584225 7.556387 0.009044 2.138920 -1.824900 0.125360 7.271502 24.170519 35.592096 27.632297 0.000000 0.000000 0.000000 -1.124529 1.868854 -18.961181 -1.992368 1.736664 21.831573 4.426357 9.796747 2.161407 0.000000 0.000000 0.000000 2.542776 -0.138796 1.518501 3.808246 -1.938967 2.745532 -2.131537 -11.958447 1.093613 0.343501 -0.377182 -7.411954 0.000000 0.000000 0.000000 -23.744924 -9.930045 8.169910 -34.624415 -13.381620 -1.766401 -68.947717 -61.798660 52.112673 0.000000 0.000000 0.000000 19.763462 4.227671 -3.579457 46.623323 -1.744594 -3.618510 27.527434 43.272769 9.434238 0.000000 0.000000 0.000000 
-0.002394 0.920825 -0.010989 -0.382167 -8.562215 2.843661 7.247873 0.129631 3.059705 -2.849395 0.372139 6.211974 27.124509 37.852175 30.542157 0.000000 0.000000 0.000000 -0.448188 2.218793 -20.256566 -3.034537 2.290530 22.124138 5.815788 13.027060 2.501274 0.000000 0.000000 0.000000 3.118080 -0.192376 2.055164 3.443403 -1.707101 3.236605 -0.437660 -17.790948 -0.196651 -3.459479 2.011403 -6.805054 0.000000 0.000000 0.000000 -25.105590 -11.999477 12.623006 -31.022391 -20.070340 -0.835363 -38.987532 -66.757891 33.630212 0.000000 0.000000 0.000000 17.526826 3.898613 -5.160164 45.677444 -2.552224 -3.465214 30.968545 41.108594 8.652511 0.000000 0.000000 0.000000 
-0.003693 0.919026 -0.014883 -0.358526 -11.876469 2.417254 6.836119 0.268587 4.206859 -3.283345 0.498701 5.774571 29.596054 39.621688 32.937007 0.000000 0.000000 0.000000 0.089609 2.526758 -21.255743 -3.536144 2.794507 23.470300 6.939932 15.527181 2.921792 0.000000 0.000000 0.000000 3.259965 -0.278643 3.400215 4.838094 -2.330550 2.917731 -0.748596 -22.519403 -0.333438 -6.203936 3.752573 -6.997062 0.000000 0.000000 0.000000 -23.833677 -15.367614 16.618498 -24.825052 -29.448315 0.326569 1.748041 -57.812598 4.252693 0.000000 0.000000 0.000000 15.681029 3.607523 -6.021960 45.639974 -3.670138 -3.845343 30.611961 40.753587 7.349490 0.000000 0.000000 0.000000 
-0.005768 0.918813 -0.017521 -0.456232 -15.784608 2.626574 6.438514 0.406781 5.071471 -3.782586 0.639201 4.890425 32.569767 41.278877 36.610583 0.000000 0.000000 0.000000 1.182220 2.948613 -22.172174 -4.718923 3.395802 23.571960 8.455147 18.473423 3.855802 0.000000 0.000000 0.000000 3.999539 -0.379300 4.524288 4.624460 -2.132910 1.788191 -0.214833 -26.527071 0.176946 -8.413146 4.918334 -8.167538 0.000000 0.000000 0.000000 -21.843143 -18.160450 19.600211 -17.262702 -36.129777 0.214381 16.050869 -41.802466 -3.166160 0.000000 0.000000 0.000000 13.103955 2.727245 -6.388323 45.861276 -4.936341 -4.791390 30.784093 41.360017 6.512827 0.000000 0.000000 0.000000 
-0.008280 0.918657 -0.019046 -0.415928 -18.450039 2.369681 5.948994 0.622182 7.054816 -3.275703 0.556314 3.893662 30.551496 40.114175 34.780983 0.000000 0.000000 0.000000 1.942995 3.157538 -22.248667 -5.547891 3.794165 23.514478 9.498906 20.563947 4.412183 0.000000 0.000000 0.000000 4.063621 -0.434037 5.520108 5.005712 -2.261526 0.959918 -0.240551 -29.529659 0.614436 -9.214656 5.717100 -7.065287 0.000000 0.000000 0.000000 -19.407363 -20.599202 21.201114 -9.800308 -38.730939 -0.759442 19.347313 -25.759248 -3.016906 0.000000 0.000000 0.000000 11.146652 1.403686 -6.611545 46.594237 -6.297354 -6.010933 30.115007 42.404562 5.745783 0.000000 0.000000 0.000000 
